<?xml version="1.0" encoding="UTF-8" standalone="no"?>
<svg
   xmlns:dc="http://purl.org/dc/elements/1.1/"
   xmlns:cc="http://creativecommons.org/ns#"
   xmlns:rdf="http://www.w3.org/1999/02/22-rdf-syntax-ns#"
   xmlns:svg="http://www.w3.org/2000/svg"
   xmlns="http://www.w3.org/2000/svg"
   xmlns:sodipodi="http://sodipodi.sourceforge.net/DTD/sodipodi-0.dtd"
   xmlns:inkscape="http://www.inkscape.org/namespaces/inkscape"
   inkscape:version="1.0 (4035a4fb49, 2020-05-01)"
   inkscape:export-ydpi="333.91306"
   inkscape:export-xdpi="333.91306"
   inkscape:export-filename="D:\OneDrive\OneDrive - Exida\Pictures\Resources\exsilentia_v4_icon_only.png"
   sodipodi:docname="exsilentia_v4_icon_only.svg"
   viewBox="0 0 73.683334 73.599999"
   height="73.599998"
   width="73.683334"
   xml:space="preserve"
   id="svg2"
   version="1.1"><sodipodi:namedview
     inkscape:current-layer="svg2"
     inkscape:window-maximized="0"
     inkscape:window-y="573"
     inkscape:window-x="1007"
     inkscape:cy="36.799999"
     inkscape:cx="36.841667"
     inkscape:zoom="8.0868298"
     showgrid="false"
     id="namedview140"
     inkscape:window-height="777"
     inkscape:window-width="1344"
     inkscape:pageshadow="2"
     inkscape:pageopacity="0"
     guidetolerance="10"
     gridtolerance="10"
     objecttolerance="10"
     borderopacity="1"
     bordercolor="#666666"
     pagecolor="#ffffff" /><metadata
     id="metadata8"><rdf:RDF><cc:Work
         rdf:about=""><dc:format>image/svg+xml</dc:format><dc:type
           rdf:resource="http://purl.org/dc/dcmitype/StillImage" /><dc:title /></cc:Work></rdf:RDF></metadata><defs
     id="defs6"><clipPath
       id="clipPath20"
       clipPathUnits="userSpaceOnUse"><path
         id="path18"
         d="M 276.324,133.203 V 0 c 96.571,0 181.5,49.5898 230.906,124.613 L 391.395,191.492 C 365.324,156.207 323.563,133.203 276.324,133.203 Z" /></clipPath><linearGradient
       id="linearGradient26"
       spreadMethod="pad"
       gradientTransform="matrix(-385.626,432.044,432.044,385.626,528.171,-90.504)"
       gradientUnits="userSpaceOnUse"
       y2="0"
       x2="1"
       y1="0"
       x1="0"><stop
         id="stop22"
         offset="0"
         style="stop-opacity:1;stop-color:#7b7979" /><stop
         id="stop24"
         offset="1"
         style="stop-opacity:1;stop-color:#231f20" /></linearGradient><clipPath
       id="clipPath36"
       clipPathUnits="userSpaceOnUse"><path
         id="path34"
         d="m 276.32,133.203 c -47.242,0 -89.019,22.996 -115.086,58.289 L 45.3984,124.613 C 94.8086,49.5781 179.75,0 276.32,0 h 0.004 v 133.203 z" /></clipPath><linearGradient
       id="linearGradient42"
       spreadMethod="pad"
       gradientTransform="matrix(-617.77,-174.976,-174.976,617.77,424.621,154.048)"
       gradientUnits="userSpaceOnUse"
       y2="0"
       x2="1"
       y1="0"
       x1="0"><stop
         id="stop38"
         offset="0"
         style="stop-opacity:1;stop-color:#7b7979" /><stop
         id="stop40"
         offset="1"
         style="stop-opacity:1;stop-color:#231f20" /></linearGradient><clipPath
       id="clipPath52"
       clipPathUnits="userSpaceOnUse"><path
         id="path50"
         d="M 0,0 H 3746 V 552 H 0 Z" /></clipPath><clipPath
       id="clipPath58"
       clipPathUnits="userSpaceOnUse"><path
         id="path56"
         d="m 260.195,418.469 -0.011,133.652 C 164.707,546.633 82.2773,492.656 37.0313,414.438 L 152.469,347.801 c 22.183,38.367 61.586,65.488 107.726,70.668 z" /></clipPath><linearGradient
       id="linearGradient68"
       spreadMethod="pad"
       gradientTransform="matrix(-32.1363,789.404,789.404,32.1363,163.045,128.595)"
       gradientUnits="userSpaceOnUse"
       y2="0"
       x2="1"
       y1="0"
       x1="0"><stop
         id="stop60"
         offset="0"
         style="stop-opacity:1;stop-color:#f4f4f4" /><stop
         id="stop62"
         offset="0.48910135"
         style="stop-opacity:1;stop-color:#7b7979" /><stop
         id="stop64"
         offset="0.53"
         style="stop-opacity:1;stop-color:#7b7979" /><stop
         id="stop66"
         offset="1"
         style="stop-opacity:1;stop-color:#231f20" /></linearGradient><clipPath
       id="clipPath78"
       clipPathUnits="userSpaceOnUse"><path
         id="path76"
         d="m 133.195,276.316 c 0,26.086 7.082,50.434 19.274,71.485 L 37.0313,414.438 C 13.5156,373.785 0,326.66 0,276.316 0,231.813 10.5859,189.797 29.2773,152.566 l 115.7577,66.829 c -7.582,17.457 -11.84,36.691 -11.84,56.921 z" /></clipPath><linearGradient
       id="linearGradient84"
       spreadMethod="pad"
       gradientTransform="matrix(-617.765,-174.974,-174.974,617.765,361.606,376.532)"
       gradientUnits="userSpaceOnUse"
       y2="0"
       x2="1"
       y1="0"
       x1="0"><stop
         id="stop80"
         offset="0"
         style="stop-opacity:1;stop-color:#7b7979" /><stop
         id="stop82"
         offset="1"
         style="stop-opacity:1;stop-color:#231f20" /></linearGradient><clipPath
       id="clipPath94"
       clipPathUnits="userSpaceOnUse"><path
         id="path92"
         d="M 0,0 H 3746 V 552 H 0 Z" /></clipPath><clipPath
       id="clipPath100"
       clipPathUnits="userSpaceOnUse"><path
         id="path98"
         d="m 400.168,347.801 115.426,66.625 c -45.25,78.23 -127.668,132.207 -223.149,137.695 V 418.457 c 46.133,-5.18 85.535,-32.289 107.723,-70.656 z" /></clipPath><linearGradient
       id="linearGradient110"
       spreadMethod="pad"
       gradientTransform="matrix(-32.1356,789.386,789.386,32.1356,415.32,138.873)"
       gradientUnits="userSpaceOnUse"
       y2="0"
       x2="1"
       y1="0"
       x1="0"><stop
         id="stop102"
         offset="0"
         style="stop-opacity:1;stop-color:#f4f4f4" /><stop
         id="stop104"
         offset="0.48910135"
         style="stop-opacity:1;stop-color:#7b7979" /><stop
         id="stop106"
         offset="0.53"
         style="stop-opacity:1;stop-color:#7b7979" /><stop
         id="stop108"
         offset="1"
         style="stop-opacity:1;stop-color:#231f20" /></linearGradient><clipPath
       id="clipPath120"
       clipPathUnits="userSpaceOnUse"><path
         id="path118"
         d="M 515.594,414.426 400.168,347.801 c 12.168,-21.051 19.258,-45.399 19.258,-71.485 0,-20.23 -4.254,-39.464 -11.832,-56.921 l 115.758,-66.829 c 18.695,37.231 29.273,79.247 29.273,123.75 0,50.325 -13.523,97.469 -37.031,138.11 z" /></clipPath><linearGradient
       id="linearGradient126"
       spreadMethod="pad"
       gradientTransform="matrix(-385.645,432.065,432.065,385.645,693.516,57.072)"
       gradientUnits="userSpaceOnUse"
       y2="0"
       x2="1"
       y1="0"
       x1="0"><stop
         id="stop122"
         offset="0"
         style="stop-opacity:1;stop-color:#7b7979" /><stop
         id="stop124"
         offset="1"
         style="stop-opacity:1;stop-color:#231f20" /></linearGradient><clipPath
       id="clipPath136"
       clipPathUnits="userSpaceOnUse"><path
         id="path134"
         d="m 259.973,285.754 -77.688,44.84 c -9.25,-15.992 -14.625,-34.477 -14.625,-54.278 0,-13.968 2.723,-27.253 7.52,-39.535 3.98,-10.144 9.41,-19.551 16.082,-27.961 19.914,-25.05 50.566,-41.148 85.058,-41.148 h 0.004 v 90.238 18.406 z" /></clipPath><linearGradient
       id="linearGradient142"
       spreadMethod="pad"
       gradientTransform="matrix(-617.812,-174.987,-174.987,617.812,385.194,293.284)"
       gradientUnits="userSpaceOnUse"
       y2="0"
       x2="1"
       y1="0"
       x1="0"><stop
         id="stop138"
         offset="0"
         style="stop-opacity:1;stop-color:#d0cfcf" /><stop
         id="stop140"
         offset="1"
         style="stop-opacity:1;stop-color:#494647" /></linearGradient><clipPath
       id="clipPath152"
       clipPathUnits="userSpaceOnUse"><path
         id="path150"
         d="m 292.449,383.641 c -5.277,0.8 -10.636,1.328 -16.129,1.328 -5.504,0 -10.859,-0.528 -16.125,-1.328 -33.34,-4.957 -61.691,-25.008 -77.91,-53.047 l 77.688,-44.84 16.351,-9.438 16.336,9.438 77.684,44.828 c -16.227,28.039 -44.555,48.094 -77.895,53.059 z" /></clipPath><linearGradient
       id="linearGradient160"
       spreadMethod="pad"
       gradientTransform="matrix(-32.1349,789.371,789.371,32.1349,284.336,133.545)"
       gradientUnits="userSpaceOnUse"
       y2="0"
       x2="1"
       y1="0"
       x1="0"><stop
         id="stop154"
         offset="0"
         style="stop-opacity:1;stop-color:#f1f1f1" /><stop
         id="stop156"
         offset="0.495"
         style="stop-opacity:1;stop-color:#d0cfcf" /><stop
         id="stop158"
         offset="1"
         style="stop-opacity:1;stop-color:#494647" /></linearGradient><clipPath
       id="clipPath170"
       clipPathUnits="userSpaceOnUse"><path
         id="path168"
         d="M 370.344,330.582 292.66,285.754 276.324,276.316 V 167.672 c 34.473,0 65.137,16.117 85.039,41.148 6.672,8.41 12.11,17.817 16.078,27.981 4.797,12.262 7.524,25.547 7.524,39.515 0,19.801 -5.379,38.286 -14.621,54.266 z" /></clipPath><linearGradient
       id="linearGradient176"
       spreadMethod="pad"
       gradientTransform="matrix(-385.629,432.048,432.048,385.629,582.886,-41.667)"
       gradientUnits="userSpaceOnUse"
       y2="0"
       x2="1"
       y1="0"
       x1="0"><stop
         id="stop172"
         offset="0"
         style="stop-opacity:1;stop-color:#d0cfcf" /><stop
         id="stop174"
         offset="1"
         style="stop-opacity:1;stop-color:#494647" /></linearGradient><clipPath
       id="clipPath186"
       clipPathUnits="userSpaceOnUse"><path
         id="path184"
         d="m 870.797,258.926 c 0,80.695 -36.078,122.023 -92.5,122.023 -53.797,0 -101.688,-46.582 -108.246,-122.023 z m -93.156,146.953 c 74.789,0 120.711,-53.145 120.711,-145.645 0,-7.871 0,-15.742 -1.313,-23.613 H 670.051 c 1.312,-79.387 47.89,-136.457 118.742,-136.457 34.113,0 61.012,11.149 84.633,28.207 L 885.23,106.066 C 860.301,90.9766 832.094,75.2305 786.172,75.2305 c -80.695,0 -145.645,61.6675 -145.645,164.6675 0,103 66.918,165.981 137.114,165.981 z" /></clipPath><linearGradient
       id="linearGradient192"
       spreadMethod="pad"
       gradientTransform="matrix(-159.608,-276.449,-276.449,159.608,864.295,375.997)"
       gradientUnits="userSpaceOnUse"
       y2="0"
       x2="1"
       y1="0"
       x1="0"><stop
         id="stop188"
         offset="0"
         style="stop-opacity:1;stop-color:#a7a5a6" /><stop
         id="stop190"
         offset="1"
         style="stop-opacity:1;stop-color:#656263" /></linearGradient><clipPath
       id="clipPath202"
       clipPathUnits="userSpaceOnUse"><path
         id="path200"
         d="m 1039.39,247.77 -98.406,150.238 h 32.149 l 51.167,-80.039 c 10.5,-17.059 21.65,-34.774 33.46,-51.824 h 2.62 c 11.16,17.05 21,34.765 32.15,51.824 l 49.21,80.039 h 30.17 L 1074.16,245.148 1181.1,83.1055 h -32.15 l -55.76,85.9415 c -11.81,19.68 -24.28,39.359 -37.4,57.73 h -2.62 c -12.47,-18.371 -23.62,-38.05 -36.08,-57.73 L 963.293,83.1055 h -30.836 z" /></clipPath><linearGradient
       id="linearGradient208"
       spreadMethod="pad"
       gradientTransform="matrix(-196.22,-339.863,-339.863,196.22,1156.94,406.653)"
       gradientUnits="userSpaceOnUse"
       y2="0"
       x2="1"
       y1="0"
       x1="0"><stop
         id="stop204"
         offset="0"
         style="stop-opacity:1;stop-color:#a7a5a6" /><stop
         id="stop206"
         offset="1"
         style="stop-opacity:1;stop-color:#656263" /></linearGradient><clipPath
       id="clipPath218"
       clipPathUnits="userSpaceOnUse"><path
         id="path216"
         d="m 1268.35,203.164 c 30.84,-26.246 70.2,-44.613 105.63,-44.613 40.01,0 59.69,15.742 59.69,41.328 0,26.898 -24.27,35.426 -61.66,51.176 l -55.77,23.613 c -43.95,17.715 -85.94,54.453 -85.94,116.777 0,70.856 62.98,127.274 152.2,127.274 49.21,0 101.03,-19.68 137.77,-56.418 l -49.2,-61.016 c -28.21,21.649 -54.45,34.113 -88.57,34.113 -33.45,0 -54.45,-14.429 -54.45,-38.707 0,-26.238 28.21,-35.425 64.95,-50.515 l 55.11,-22.305 c 51.82,-20.992 84.63,-55.762 84.63,-116.121 0,-70.852 -59.05,-132.5195 -161.39,-132.5195 -55.76,0 -114.81,20.9922 -158.11,61.6675 z" /></clipPath><linearGradient
       id="linearGradient224"
       spreadMethod="pad"
       gradientTransform="matrix(-334.093,192.889,192.889,334.093,1545.44,196.746)"
       gradientUnits="userSpaceOnUse"
       y2="0"
       x2="1"
       y1="0"
       x1="0"><stop
         id="stop220"
         offset="0"
         style="stop-opacity:1;stop-color:#c2161c" /><stop
         id="stop222"
         offset="1"
         style="stop-opacity:1;stop-color:#ee2922" /></linearGradient><clipPath
       id="clipPath234"
       clipPathUnits="userSpaceOnUse"><path
         id="path232"
         d="m 1605.56,510.848 h 96.43 V 83.1055 h -96.43 z" /></clipPath><linearGradient
       id="linearGradient240"
       spreadMethod="pad"
       gradientTransform="matrix(-257.546,148.694,148.694,257.546,1782.55,222.63)"
       gradientUnits="userSpaceOnUse"
       y2="0"
       x2="1"
       y1="0"
       x1="0"><stop
         id="stop236"
         offset="0"
         style="stop-opacity:1;stop-color:#c2161c" /><stop
         id="stop238"
         offset="1"
         style="stop-opacity:1;stop-color:#ee2922" /></linearGradient><clipPath
       id="clipPath250"
       clipPathUnits="userSpaceOnUse"><path
         id="path248"
         d="m 1803.02,510.848 h 96.44 V 164.453 h 169.25 V 83.1055 h -265.69 z" /></clipPath><linearGradient
       id="linearGradient256"
       spreadMethod="pad"
       gradientTransform="matrix(-384.488,221.984,221.984,384.488,2106.95,149.339)"
       gradientUnits="userSpaceOnUse"
       y2="0"
       x2="1"
       y1="0"
       x1="0"><stop
         id="stop252"
         offset="0"
         style="stop-opacity:1;stop-color:#c2161c" /><stop
         id="stop254"
         offset="1"
         style="stop-opacity:1;stop-color:#ee2922" /></linearGradient><clipPath
       id="clipPath266"
       clipPathUnits="userSpaceOnUse"><path
         id="path264"
         d="m 2356.71,258.926 c 0,80.695 -36.08,122.023 -92.5,122.023 -53.8,0 -101.69,-46.582 -108.25,-122.023 z m -93.16,146.953 c 74.79,0 120.71,-53.145 120.71,-145.645 0,-7.871 0,-15.742 -1.31,-23.613 h -226.99 c 1.31,-79.387 47.89,-136.457 118.74,-136.457 34.12,0 61.02,11.149 84.64,28.207 l 11.8,-22.305 c -24.93,-15.0894 -53.13,-30.8355 -99.06,-30.8355 -80.69,0 -145.64,61.6675 -145.64,164.6675 0,103 66.92,165.981 137.11,165.981 z" /></clipPath><linearGradient
       id="linearGradient272"
       spreadMethod="pad"
       gradientTransform="matrix(-159.608,-276.449,-276.449,159.608,2350.21,375.997)"
       gradientUnits="userSpaceOnUse"
       y2="0"
       x2="1"
       y1="0"
       x1="0"><stop
         id="stop268"
         offset="0"
         style="stop-opacity:1;stop-color:#a7a5a6" /><stop
         id="stop270"
         offset="1"
         style="stop-opacity:1;stop-color:#656263" /></linearGradient><clipPath
       id="clipPath282"
       clipPathUnits="userSpaceOnUse"><path
         id="path280"
         d="m 2469.54,398.008 h 24.93 l 2.63,-48.547 h 1.96 c 32.15,32.144 64.95,56.418 108.25,56.418 64.95,0 95.13,-39.363 95.13,-120.715 V 83.1055 h -28.87 V 281.227 c 0,66.918 -20.99,98.406 -72.16,98.406 -37.4,0 -64.29,-19.68 -103,-59.039 V 83.1055 h -28.87 z" /></clipPath><linearGradient
       id="linearGradient288"
       spreadMethod="pad"
       gradientTransform="matrix(-181.89,-315.043,-315.043,181.89,2670.59,387.088)"
       gradientUnits="userSpaceOnUse"
       y2="0"
       x2="1"
       y1="0"
       x1="0"><stop
         id="stop284"
         offset="0"
         style="stop-opacity:1;stop-color:#a7a5a6" /><stop
         id="stop286"
         offset="1"
         style="stop-opacity:1;stop-color:#656263" /></linearGradient><clipPath
       id="clipPath298"
       clipPathUnits="userSpaceOnUse"><path
         id="path296"
         d="m 2825.78,373.078 h -49.21 v 22.305 l 49.86,2.625 3.94,91.187 h 24.93 v -91.187 h 91.19 v -24.93 H 2855.3 V 167.73 c 0,-40.015 9.84,-66.914 53.13,-66.914 11.82,0 28.22,4.594 39.37,9.844 l 7.87,-23.617 c -18.37,-6.5625 -38.05,-11.8125 -51.17,-11.8125 -61.01,0 -78.72,38.7075 -78.72,95.1245 z" /></clipPath><linearGradient
       id="linearGradient304"
       spreadMethod="pad"
       gradientTransform="matrix(-173.651,-300.772,-300.772,173.651,2970.66,422.592)"
       gradientUnits="userSpaceOnUse"
       y2="0"
       x2="1"
       y1="0"
       x1="0"><stop
         id="stop300"
         offset="0"
         style="stop-opacity:1;stop-color:#a7a5a6" /><stop
         id="stop302"
         offset="1"
         style="stop-opacity:1;stop-color:#656263" /></linearGradient><clipPath
       id="clipPath314"
       clipPathUnits="userSpaceOnUse"><path
         id="path312"
         d="m 3023.24,398.008 h 28.87 V 83.1055 h -28.87 z m -11.15,101.683 c 0,16.403 11.81,26.243 26.24,26.243 14.43,0 26.24,-9.84 26.24,-26.243 0,-15.089 -11.81,-25.586 -26.24,-25.586 -14.43,0 -26.24,10.497 -26.24,25.586 z" /></clipPath><linearGradient
       id="linearGradient320"
       spreadMethod="pad"
       gradientTransform="matrix(-197.467,-342.023,-342.023,197.467,3135.46,474.349)"
       gradientUnits="userSpaceOnUse"
       y2="0"
       x2="1"
       y1="0"
       x1="0"><stop
         id="stop316"
         offset="0"
         style="stop-opacity:1;stop-color:#a7a5a6" /><stop
         id="stop318"
         offset="1"
         style="stop-opacity:1;stop-color:#656263" /></linearGradient><clipPath
       id="clipPath330"
       clipPathUnits="userSpaceOnUse"><path
         id="path328"
         d="m 3252.19,100.164 c 36.09,0 68.23,17.711 106.94,51.168 v 106.934 c -129.25,-15.09 -173.2,-45.262 -173.2,-95.121 0,-45.27 30.18,-62.981 66.26,-62.981 z m 106.94,180.41 c 1.31,47.891 -12.47,99.719 -74.14,99.719 -42.64,0 -79.38,-20.996 -100.37,-36.738 l -13.12,21.644 c 22.31,15.75 65.6,40.68 116.78,40.68 74.78,0 99.71,-53.793 99.71,-121.367 V 83.1055 h -24.27 l -3.28,40.6715 h -1.31 c -32.15,-25.5817 -70.2,-48.5465 -111.53,-48.5465 -49.86,0 -91.84,26.9025 -91.84,86.5975 0,69.543 63.63,103 203.37,118.746 z" /></clipPath><linearGradient
       id="linearGradient336"
       spreadMethod="pad"
       gradientTransform="matrix(-168.877,-292.503,-292.503,168.877,3368.39,377.684)"
       gradientUnits="userSpaceOnUse"
       y2="0"
       x2="1"
       y1="0"
       x1="0"><stop
         id="stop332"
         offset="0"
         style="stop-opacity:1;stop-color:#a7a5a6" /><stop
         id="stop334"
         offset="1"
         style="stop-opacity:1;stop-color:#656263" /></linearGradient></defs><g
     transform="matrix(1.3333333,0,0,-1.3333333,0,73.599998)"
     id="g10"><g
       transform="scale(0.1)"
       id="g12"><g
         id="g14"><g
           clip-path="url(#clipPath20)"
           id="g16"><path
             id="path28"
             style="fill:url(#linearGradient26);fill-opacity:1;fill-rule:nonzero;stroke:none"
             d="M 276.324,133.203 V 0 c 96.571,0 181.5,49.5898 230.906,124.613 L 391.395,191.492 C 365.324,156.207 323.563,133.203 276.324,133.203" /></g></g><g
         id="g30"><g
           clip-path="url(#clipPath36)"
           id="g32"><path
             id="path44"
             style="fill:url(#linearGradient42);fill-opacity:1;fill-rule:nonzero;stroke:none"
             d="m 276.32,133.203 c -47.242,0 -89.019,22.996 -115.086,58.289 L 45.3984,124.613 C 94.8086,49.5781 179.75,0 276.32,0 h 0.004 v 133.203 h -0.004" /></g></g><g
         id="g46"><g
           clip-path="url(#clipPath52)"
           id="g48"><g
             clip-path="url(#clipPath58)"
             id="g54"><path
               id="path70"
               style="fill:url(#linearGradient68);fill-opacity:1;fill-rule:nonzero;stroke:none"
               d="m 152,347 c -37.75211,22.60605 -76.348843,43.76864 -114.014429,66.52136 7.155184,22.54592 25.828626,38.75568 40.561816,56.49801 46.580093,47.76163 111.208733,78.17908 177.927093,82.16717 9.82056,-6.89145 2.52784,-22.41465 4.52552,-33.46085 0,-33.57523 0,-67.15046 0,-100.72569 -44.58237,-4.9919 -85.9033,-31.89027 -108,-71" /></g></g></g><g
         id="g72"><g
           clip-path="url(#clipPath78)"
           id="g74"><path
             id="path86"
             style="fill:url(#linearGradient84);fill-opacity:1;fill-rule:nonzero;stroke:none"
             d="m 133.195,276.316 c 0,26.086 7.082,50.434 19.274,71.485 L 37.0313,414.438 C 13.5156,373.785 0,326.66 0,276.316 0,231.813 10.5859,189.797 29.2773,152.566 l 115.7577,66.829 c -7.582,17.457 -11.84,36.691 -11.84,56.921" /></g></g><g
         id="g88"><g
           clip-path="url(#clipPath94)"
           id="g90"><g
             clip-path="url(#clipPath100)"
             id="g96"><path
               id="path112"
               style="fill:url(#linearGradient110);fill-opacity:1;fill-rule:nonzero;stroke:none"
               d="m 400,347 c -16.62862,27.50309 -41.64313,50.39826 -71.61124,62.14283 -18.72671,3.52254 -45.02435,7.73217 -36.41324,33.23774 C 292.07608,478.92033 291.94759,515.4602 292,552 345.554,550.60081 398.07618,530.48759 441.08337,498.92609 469.14544,477.94564 493.37343,451.654 511.9594,422.00224 518.31372,403.67848 489.50941,403.62296 480.15342,392.99278 453.67264,377.81012 426.76721,363.37243 401,347" /></g></g></g><g
         id="g114"><g
           clip-path="url(#clipPath120)"
           id="g116"><path
             id="path128"
             style="fill:url(#linearGradient126);fill-opacity:1;fill-rule:nonzero;stroke:none"
             d="M 515.594,414.426 400.168,347.801 c 12.168,-21.051 19.258,-45.399 19.258,-71.485 0,-20.23 -4.254,-39.464 -11.832,-56.921 l 115.758,-66.829 c 18.695,37.231 29.273,79.247 29.273,123.75 0,50.325 -13.523,97.469 -37.031,138.11" /></g></g><g
         id="g130"><g
           clip-path="url(#clipPath136)"
           id="g132"><path
             id="path144"
             style="fill:url(#linearGradient142);fill-opacity:1;fill-rule:nonzero;stroke:none"
             d="m 259.973,285.754 -77.688,44.84 c -9.25,-15.992 -14.625,-34.477 -14.625,-54.278 0,-13.968 2.723,-27.253 7.52,-39.535 3.98,-10.144 9.41,-19.551 16.082,-27.961 19.914,-25.05 50.566,-41.148 85.058,-41.148 h 0.004 v 90.238 18.406 l -16.351,9.438" /></g></g><g
         id="g146"><g
           clip-path="url(#clipPath152)"
           id="g148"><path
             id="path162"
             style="fill:url(#linearGradient160);fill-opacity:1;fill-rule:nonzero;stroke:none"
             d="m 292.449,383.641 c -5.277,0.8 -10.636,1.328 -16.129,1.328 -5.504,0 -10.859,-0.528 -16.125,-1.328 -33.34,-4.957 -61.691,-25.008 -77.91,-53.047 l 77.688,-44.84 16.351,-9.438 16.336,9.438 77.684,44.828 c -16.227,28.039 -44.555,48.094 -77.895,53.059" /></g></g><g
         id="g164"><g
           clip-path="url(#clipPath170)"
           id="g166"><path
             id="path178"
             style="fill:url(#linearGradient176);fill-opacity:1;fill-rule:nonzero;stroke:none"
             d="M 370.344,330.582 292.66,285.754 276.324,276.316 V 167.672 c 34.473,0 65.137,16.117 85.039,41.148 6.672,8.41 12.11,17.817 16.078,27.981 4.797,12.262 7.524,25.547 7.524,39.515 0,19.801 -5.379,38.286 -14.621,54.266" /></g></g></g></g></svg>
