<?xml version="1.0" encoding="utf-8"?>
<!-- Generator: Adobe Illustrator 18.0.0, SVG Export Plug-In . SVG Version: 6.00 Build 0)  -->
<!DOCTYPE svg PUBLIC "-//W3C//DTD SVG 1.1//EN" "http://www.w3.org/Graphics/SVG/1.1/DTD/svg11.dtd">
<svg version="1.1" id="Layer_1" xmlns="http://www.w3.org/2000/svg" xmlns:xlink="http://www.w3.org/1999/xlink" x="0px" y="0px"
	 viewBox="0 0 400 210" enable-background="new 0 0 400 210" xml:space="preserve">
<g>
	<polygon fill="#EF3C24" points="99.5,0 99.5,209 5.6,142.7 99.5,0 	"/>
	<polyline fill="#FBDE64" points="103.3,209.3 103.3,0 191.9,142.2 	"/>
	<path fill="#EF3C24" d="M115,109.2c6.4-0.6,11.2-1.6,14.6-3.1c3.4-1.5,6.1-3.4,8-5.8c2-2.4,3-4.8,3-7c0-1.4-0.6-2.7-1.7-4
		c-1.2-1.2-2.6-1.8-4.4-1.8c-2.5,0-4.9,0.8-7.4,2.3c-2,1.2-3.8,2.9-5.5,4.9c-1.4,1.6-2.5,3.3-3.6,5.2C117,101.8,116,104.9,115,109.2
		L115,109.2z M148.4,132.6c-9.2,4.8-17.8,7.1-25.9,7.1c-6.1,0-10.8-1.8-14.1-5.3c-3.3-3.6-5-8.4-5-14.5c0-6.6,1.5-13.1,4.6-19.3
		c3.1-6.2,7.2-11.3,12.4-15.4c5.2-4,10.9-6,17.1-6c4.3,0,7.5,1,9.8,3c2.3,2,3.4,4.9,3.4,8.5c0,4.4-1.4,8.4-4.2,12.1
		c-2.8,3.7-6.9,6.8-12.5,9.4c-5.5,2.6-12.2,4.2-20.1,4.8c0,4.9,1.1,8.6,3.2,10.9c2.1,2.3,4.9,3.5,8.4,3.5c2.7,0,6.4-0.7,11-2.2
		c4.6-1.4,9.2-3.7,13.8-6.7L148.4,132.6L148.4,132.6z"/>
	<path fill="#EF3C24" d="M234.7,67.9l2.1-11h10.5l-2.1,11H234.7L234.7,67.9z M221.2,139.6l11.5-60.8h10.6l-11.5,60.8H221.2
		L221.2,139.6z"/>
	<path fill="#EF3C24" d="M294.7,102.3l2.7-13.4c-2.5-1.3-5.3-2-8.1-2c-4,0-8.1,1.7-12.2,5c-4.1,3.3-7.6,8.2-10.3,14.6
		c-2.7,6.4-4.1,12.2-4.1,17.4c0,1.6,0.4,3,1.1,4.1c0.7,1.1,1.8,1.6,3.3,1.6C272.2,129.5,281.4,120.4,294.7,102.3L294.7,102.3z
		 M287.5,138.4l4.7-23.6c-4.5,7.5-9.4,13.6-14.7,18.1c-5.4,4.6-10.3,6.8-15,6.8c-3.4,0-6-1.4-8-4.3c-2-2.9-3-6.1-3-9.6
		c0-7.1,2-14.5,5.9-22.2c4-7.7,8.8-13.7,14.5-18c5.7-4.2,11.9-6.4,18.4-6.4c2.5,0,5.4,0.4,8.7,1.3l5.2-26.3h10.5L298,138.4H287.5
		L287.5,138.4z"/>
	<path fill="#EF3C24" d="M361,102.3l2.7-13.4c-1.3-0.7-2.6-1.2-3.9-1.5c-1.3-0.3-2.7-0.5-4.2-0.5c-4,0-8.1,1.7-12.2,5
		c-4.1,3.3-7.6,8.2-10.3,14.6c-2.7,6.4-4.1,12.2-4.1,17.4c0,1.6,0.4,3,1.1,4.1c0.7,1.1,1.8,1.6,3.3,1.6
		C338.6,129.5,347.8,120.4,361,102.3L361,102.3z M353.9,138.4l4.7-23.7c-4.5,7.5-9.4,13.6-14.7,18.1c-5.3,4.6-10.3,6.8-15,6.8
		c-3.4,0-6-1.4-8-4.3c-2-2.9-3-6.1-3-9.6c0-7.1,2-14.5,5.9-22.2c3.9-7.7,8.8-13.7,14.5-18c5.7-4.2,11.9-6.4,18.4-6.4
		c1.2,0,2.6,0.1,4,0.3c1.5,0.2,3,0.6,4.6,1h10.5l-11.4,57.9H353.9L353.9,138.4z"/>
	<polygon fill="#EF3D23" points="164.2,79.1 175.2,78.8 187.5,98.5 203.4,78 213.8,77.8 192.3,106.1 212.4,139.6 200.5,140 
		186.3,116.7 168.3,139.7 156.2,140 180.9,108.1 164.2,79.1 	"/>
	<path fill="#EF3C24" d="M390.1,68.7c0-0.6-0.4-1-1.3-1h-0.4v2h0.2C389.6,69.8,390.1,69.4,390.1,68.7L390.1,68.7z M391.8,73.4H390
		l-1.6-2.9v2.9h-1.5v-6.9h2.1c0.8,0,1.4,0.2,1.8,0.5c0.5,0.4,0.8,0.9,0.8,1.7c0,0.5-0.1,1-0.4,1.3c-0.3,0.4-0.7,0.6-1.1,0.8
		L391.8,73.4L391.8,73.4z M394.7,69.9c0-1.6-0.6-2.9-1.7-4.1c-1.1-1.1-2.5-1.7-4.1-1.7c-1.6,0-2.9,0.6-4.1,1.7
		c-1.1,1.1-1.7,2.5-1.7,4.1c0,1.6,0.6,2.9,1.7,4.1c1.1,1.1,2.5,1.7,4.1,1.7c1.6,0,2.9-0.6,4.1-1.7C394.2,72.9,394.7,71.5,394.7,69.9
		L394.7,69.9z M395.7,69.9c0,1.9-0.7,3.4-2,4.8c-1.3,1.3-2.9,2-4.8,2c-1.9,0-3.4-0.7-4.8-2c-1.3-1.3-2-2.9-2-4.8
		c0-1.9,0.7-3.4,2-4.8c1.3-1.3,2.9-2,4.8-2c1.9,0,3.4,0.7,4.8,2C395,66.5,395.7,68.1,395.7,69.9L395.7,69.9z"/>
</g>
</svg>
